<svg width="24" height="30" viewBox="0 0 24 30" fill="none" xmlns="http://www.w3.org/2000/svg">
<g clip-path="url(#clip0_298_3820)">
<rect width="6.63957" height="7.19287" fill="#FF3E3E"/>
<rect y="9.61355" width="6.63957" height="20.472" fill="#1C1C1C"/>
<path d="M8.92188 0V6.91622H13.0024C14.69 6.91622 15.6191 7.9767 15.8727 8.50695C16.9101 10.9622 16.3222 12.8642 15.6998 14.0053C15.0773 15.1465 13.9016 15.4923 13.4174 15.4923H8.92188V22.3394C10.2129 22.3624 13.0993 22.3947 14.3165 22.3394C15.5338 22.284 17.3366 21.6478 18.0859 21.3365C22.3739 19.4346 23.5843 14.7315 23.688 14.1782C23.7917 13.6249 24.8983 9.09482 22.201 4.73761C19.5037 0.380392 14.7315 0.103743 14.2128 0.0691622C13.7978 0.0414973 10.5126 0.011527 8.92188 0Z" fill="#1C1C1C"/>
</g>
<defs>
<clipPath id="clip0_298_3820">
<rect width="24" height="30" fill="white"/>
</clipPath>
</defs>
</svg>
